<svg width="121.000000" height="48.000000" viewBox="0 0 121 48" fill="none" xmlns="http://www.w3.org/2000/svg" xmlns:xlink="http://www.w3.org/1999/xlink">
	<defs/>
	<path id="Vector" d="M48.54 24C48.54 37.25 37.68 48 24.27 48C10.86 48 0 37.25 0 24C0 10.74 10.86 0 24.27 0C37.68 0 48.54 10.74 48.54 24Z" fill="#FFFFFF" fill-opacity="1.000000" fill-rule="nonzero"/>
	<path id="Vector" d="M18.53 27.19L13.56 27.19C11.79 27.19 10.35 25.76 10.35 24C10.35 22.23 11.79 20.8 13.56 20.8L24.32 20.8C27.7 20.77 30.44 17.96 30.44 14.52C30.44 11.08 27.67 8.25 24.27 8.25C20.87 8.25 18.1 11.06 18.1 14.52C18.1 15.2 18.2 15.85 18.4 16.46L20.71 16.46C20.4 15.88 20.23 15.22 20.23 14.52C20.23 12.25 22.04 10.41 24.27 10.41C26.5 10.41 28.31 12.25 28.31 14.52C28.31 16.64 26.73 18.39 24.71 18.61C24.56 18.62 24.42 18.63 24.27 18.63L13.56 18.63C10.68 18.63 8.34 21.04 8.34 24C8.34 26.95 10.68 29.36 13.56 29.36L16.68 29.36C17.09 28.48 17.73 27.73 18.53 27.19Z" fill="#1D69D8" fill-opacity="1.000000" fill-rule="nonzero"/>
	<path id="Vector" d="M30.01 20.8L34.98 20.8C36.75 20.8 38.19 22.23 38.19 24C38.19 25.76 36.75 27.19 34.98 27.19L24.22 27.19C20.84 27.22 18.1 30.03 18.1 33.47C18.1 36.91 20.87 39.75 24.27 39.75C27.67 39.75 30.44 36.93 30.44 33.47C30.44 32.79 30.34 32.14 30.14 31.53L27.83 31.53C28.14 32.11 28.31 32.77 28.31 33.47C28.31 35.74 26.5 37.58 24.27 37.58C22.04 37.58 20.23 35.74 20.23 33.47C20.23 31.35 21.81 29.6 23.83 29.38C23.98 29.37 24.12 29.36 24.27 29.36L34.98 29.36C37.86 29.36 40.2 26.95 40.2 24C40.2 21.04 37.86 18.63 34.98 18.63L31.86 18.63C31.45 19.51 30.81 20.26 30.01 20.8Z" fill="#1D69D8" fill-opacity="1.000000" fill-rule="nonzero"/>
	<path id="Vector" d="M60.55 30L56.88 30L56.88 20.18L60.55 20.18C61.56 20.18 62.43 20.37 63.16 20.77C63.89 21.16 64.46 21.72 64.86 22.45C65.26 23.19 65.45 24.06 65.45 25.08C65.45 26.1 65.26 26.98 64.86 27.72C64.46 28.45 63.9 29.02 63.17 29.41C62.43 29.8 61.56 30 60.55 30ZM59.28 27.97L60.46 27.97C61.02 27.97 61.49 27.88 61.87 27.69C62.26 27.51 62.55 27.2 62.75 26.78C62.95 26.35 63.05 25.79 63.05 25.08C63.05 24.37 62.95 23.81 62.75 23.39C62.55 22.97 62.25 22.67 61.86 22.48C61.47 22.29 60.99 22.2 60.43 22.2L59.28 22.2L59.28 27.97Z" fill="#1D69D8" fill-opacity="1.000000" fill-rule="nonzero"/>
	<path id="Vector" d="M66.86 30L66.86 20.18L73.78 20.18L73.78 22.1L69.26 22.1L69.26 24.12L73.43 24.12L73.43 26.05L69.26 26.05L69.26 28.07L73.78 28.07L73.78 30L66.86 30Z" fill="#1D69D8" fill-opacity="1.000000" fill-rule="nonzero"/>
	<path id="Vector" d="M74.96 22.1L74.96 20.18L83.35 20.18L83.35 22.1L80.34 22.1L80.34 30L77.97 30L77.97 22.1L74.96 22.1Z" fill="#1D69D8" fill-opacity="1.000000" fill-rule="nonzero"/>
	<path id="Vector" d="M93.44 25.09C93.44 26.17 93.23 27.08 92.81 27.83C92.39 28.58 91.82 29.15 91.11 29.54C90.39 29.93 89.59 30.13 88.7 30.13C87.81 30.13 87 29.93 86.29 29.54C85.58 29.15 85.01 28.58 84.59 27.83C84.17 27.08 83.96 26.16 83.96 25.09C83.96 24.01 84.17 23.09 84.59 22.34C85.01 21.59 85.58 21.02 86.29 20.63C87 20.24 87.81 20.04 88.7 20.04C89.59 20.04 90.39 20.24 91.11 20.63C91.82 21.02 92.39 21.59 92.81 22.34C93.23 23.09 93.44 24.01 93.44 25.09ZM90.99 25.09C90.99 24.45 90.9 23.91 90.71 23.47C90.53 23.02 90.27 22.69 89.93 22.46C89.59 22.24 89.18 22.12 88.7 22.12C88.23 22.12 87.82 22.24 87.47 22.46C87.13 22.69 86.87 23.02 86.68 23.47C86.5 23.91 86.41 24.45 86.41 25.09C86.41 25.73 86.5 26.27 86.68 26.71C86.87 27.15 87.13 27.48 87.47 27.71C87.82 27.94 88.23 28.05 88.7 28.05C89.18 28.05 89.59 27.94 89.93 27.71C90.27 27.48 90.53 27.15 90.71 26.71C90.9 26.27 90.99 25.73 90.99 25.09Z" fill="#1D69D8" fill-opacity="1.000000" fill-rule="nonzero"/>
	<path id="Vector" d="M96.71 20.18L98.53 23.28L98.6 23.28L100.44 20.18L103.12 20.18L100.13 25.09L103.22 30L100.47 30L98.6 26.86L98.53 26.86L96.66 30L93.93 30L97.01 25.09L94.01 20.18L96.71 20.18Z" fill="#1D69D8" fill-opacity="1.000000" fill-rule="nonzero"/>
	<path id="Vector" d="M104.35 30L104.35 28.29L107.97 25.15C108.24 24.91 108.47 24.69 108.66 24.49C108.85 24.28 109 24.08 109.1 23.87C109.2 23.67 109.25 23.44 109.25 23.2C109.25 22.93 109.19 22.69 109.07 22.5C108.95 22.31 108.78 22.16 108.57 22.05C108.36 21.95 108.12 21.89 107.85 21.89C107.58 21.89 107.34 21.95 107.13 22.06C106.92 22.17 106.76 22.33 106.64 22.54C106.53 22.74 106.47 23 106.47 23.29L104.2 23.29C104.2 22.62 104.35 22.05 104.66 21.56C104.96 21.08 105.39 20.7 105.94 20.44C106.49 20.18 107.13 20.04 107.86 20.04C108.61 20.04 109.27 20.17 109.83 20.42C110.38 20.67 110.81 21.01 111.11 21.46C111.42 21.91 111.58 22.42 111.58 23.01C111.58 23.38 111.5 23.75 111.35 24.12C111.2 24.49 110.92 24.9 110.53 25.34C110.14 25.78 109.58 26.32 108.86 26.94L107.67 28.02L107.67 28.08L111.7 28.08L111.7 30L104.35 30Z" fill="#1D69D8" fill-opacity="1.000000" fill-rule="nonzero"/>
	<path id="Vector" d="M112.72 28.37L112.72 26.51L116.79 20.18L118.45 20.18L118.45 22.69L117.48 22.69L115.1 26.42L115.1 26.5L121 26.5L121 28.37L112.72 28.37ZM117.51 30L117.51 27.8L117.56 26.99L117.56 20.18L119.81 20.18L119.81 30L117.51 30Z" fill="#1D69D8" fill-opacity="1.000000" fill-rule="nonzero"/>
</svg>
