<svg width="40.000000" height="56.000000" viewBox="0 0 40 56" fill="none" xmlns="http://www.w3.org/2000/svg" xmlns:xlink="http://www.w3.org/1999/xlink">
	<desc>
			Created with Pixso.
	</desc>
	<defs/>
	<rect id="фрейм 1" width="40.000000" height="56.000000" fill="#FFFFFF" fill-opacity="0"/>
	<path id="Ellipse 29" d="M40 20C40 31.04 20 56 20 56C20 56 0 31.04 0 20C0 8.95 8.95 0 20 0C31.04 0 40 8.95 40 20Z" fill="#4F7AB8" fill-opacity="1.000000" fill-rule="evenodd"/>
	<circle id="Ellipse 30" cx="20.000000" cy="20.000000" r="15.000000" fill="#FFFFFF" fill-opacity="1.000000"/>
	<path id="Vector" d="M13.27 22.03L16.39 22.03C15.89 22.37 15.49 22.84 15.23 23.4L13.27 23.4C11.46 23.4 10 21.87 10 20C10 18.12 11.46 16.59 13.27 16.59L20 16.59C20.09 16.59 20.18 16.58 20.27 16.57C21.54 16.43 22.53 15.32 22.53 13.98C22.53 12.54 21.39 11.37 20 11.37C18.6 11.37 17.46 12.54 17.46 13.98C17.46 14.43 17.57 14.85 17.76 15.21L16.31 15.21C16.19 14.83 16.12 14.41 16.12 13.98C16.12 11.78 17.86 10 20 10C22.13 10 23.87 11.79 23.87 13.98C23.87 16.17 22.15 17.95 20.03 17.96L13.27 17.96C12.16 17.96 11.26 18.87 11.26 20C11.26 21.12 12.16 22.03 13.27 22.03ZM26.72 17.96L23.6 17.96C24.1 17.62 24.5 17.15 24.76 16.59L26.72 16.59C28.53 16.59 30 18.12 30 20C30 21.87 28.53 23.4 26.72 23.4L19.99 23.4C19.9 23.4 19.81 23.41 19.72 23.42C18.45 23.56 17.46 24.67 17.46 26.01C17.46 27.45 18.6 28.62 19.99 28.62C21.39 28.62 22.53 27.45 22.53 26.01C22.53 25.56 22.42 25.14 22.23 24.78L23.68 24.78C23.8 25.16 23.87 25.58 23.87 26.01C23.87 28.21 22.13 30 19.99 30C17.86 30 16.12 28.2 16.12 26.01C16.12 23.82 17.84 22.04 19.96 22.03L26.72 22.03C27.83 22.03 28.73 21.12 28.73 20C28.73 18.87 27.83 17.96 26.72 17.96Z" fill="#1D69D8" fill-opacity="1.000000" fill-rule="evenodd"/>
</svg>
