<svg width="31.000000" height="31.000000" viewBox="0 0 31 31" fill="none" xmlns="http://www.w3.org/2000/svg" xmlns:xlink="http://www.w3.org/1999/xlink">
	<desc>
			Created with Pixso.
	</desc>
	<defs/>
	<path id="Subtract" d="M12.2568 0.00390625L13.1982 0L17.8018 0L18.7446 0.00390625L19.9253 0.0168457L20.4844 0.0258789L21.0244 0.0400391L21.5449 0.0581055L22.0464 0.0788574L22.5293 0.105957L22.9941 0.138184L23.4399 0.177002L23.8701 0.219482C26.1177 0.472656 27.6587 1.01538 28.8208 2.17773C29.9834 3.34033 30.5259 4.88013 30.7793 7.12891L30.8232 7.55908L30.8604 8.0061L30.8926 8.47119L30.9185 8.95288L30.9507 9.7124L30.9663 10.2419L30.9834 11.074L30.9946 12.2559L31 13.5217L30.9985 17.8013L30.9946 18.7441L30.9819 19.9248L30.9727 20.4841L30.9585 21.0239L30.9404 21.5447L30.9199 22.0459L30.8926 22.5288L30.8604 22.9939L30.8218 23.4395L30.7793 23.8696C30.5259 26.1172 29.9834 27.6582 28.8208 28.8208C27.6587 29.9834 26.1187 30.5259 23.8701 30.7791L23.4399 30.823L22.9932 30.8606L22.5278 30.8928L22.0464 30.9187L21.2866 30.9509L20.7573 30.9663L19.9253 30.9832L18.7432 30.9949L17.4775 31L13.1982 30.9988L12.2554 30.9949L11.0747 30.9819L10.5156 30.9729L9.97559 30.9587L9.45508 30.9407L8.95361 30.9199L8.4707 30.8928L8.00586 30.8606L7.56006 30.8218L7.12988 30.7791C4.88232 30.5259 3.34131 29.9834 2.1792 28.8208C1.0166 27.6582 0.474121 26.1187 0.220703 23.8696L0.176758 23.4395L0.139648 22.9927L0.107422 22.5276L0.081543 22.0459L0.0493164 21.2864L0.0336914 20.7566L0.0166016 19.9248L0.00537109 18.7429L0 17.4771L0.00146484 13.1975L0.00537109 12.2546L0.0180664 11.074L0.0273438 10.5146L0.0415039 9.97461L0.0595703 9.4541L0.0800781 8.95288L0.107422 8.46973L0.139648 8.00488L0.178223 7.55908L0.220703 7.12891C0.474121 4.88135 1.0166 3.34033 2.1792 2.17773C3.34131 1.01538 4.88135 0.472656 7.12988 0.219482L7.56006 0.175781L8.00684 0.138184L8.47217 0.105957L8.95361 0.0800781L9.71338 0.0478516L10.2427 0.0322266L11.0747 0.0153809L12.2568 0.00390625ZM21.7207 20.9746L24.2495 9.59863C24.4741 8.59546 23.8721 8.20361 23.1836 8.44971L8.31836 13.9131C7.3042 14.2917 7.31934 14.834 8.146 15.0801L11.9463 16.2153L20.7744 10.9124C21.1895 10.6479 21.5674 10.7947 21.2568 11.0583L14.1162 17.2139L13.8389 20.957C14.2358 20.957 14.4077 20.793 14.6133 20.5967L16.4722 18.8906L20.3257 21.5994C21.0327 21.9773 21.5298 21.7773 21.7207 20.9746Z" clip-rule="evenodd" fill="#1D69D8" fill-opacity="1.000000" fill-rule="evenodd"/>
</svg>
