<svg width="26.000000" height="25.999023" viewBox="0 0 26 25.999" fill="none" xmlns="http://www.w3.org/2000/svg" xmlns:xlink="http://www.w3.org/1999/xlink">
	<desc>
			Created with Pixso.
	</desc>
	<defs/>
	<path id="Subtract" d="M11.06 0L10.27 0L9.28 0.01L8.59 0.02L8.14 0.04L7.5 0.06L7.1 0.08L6.71 0.11L6.34 0.14L5.97 0.18C4.09 0.39 2.8 0.85 1.82 1.82C0.85 2.8 0.39 4.09 0.18 5.97L0.14 6.33L0.11 6.71L0.08 7.1L0.06 7.5L0.04 7.92L0.03 8.36L0.02 8.81L0.01 9.28L0 10.27L0 11.06L0 14.65L0 15.71L0.01 16.71L0.02 17.4L0.04 17.85L0.06 18.48L0.08 18.89L0.11 19.28L0.14 19.65L0.18 20.01C0.39 21.9 0.85 23.19 1.82 24.17C2.8 25.14 4.09 25.6 5.97 25.81L6.34 25.84L6.71 25.88L7.1 25.9L7.5 25.93L7.92 25.94L8.36 25.96L8.81 25.97L9.28 25.98L10.27 25.99L11.06 25.99L14.65 25.99L15.72 25.99L16.71 25.98L17.4 25.97L17.85 25.95L18.49 25.93L18.89 25.9L19.28 25.88L19.65 25.85L20.02 25.81C21.9 25.6 23.19 25.14 24.17 24.17C25.14 23.19 25.6 21.9 25.81 20.01L25.85 19.65L25.88 19.28L25.91 18.89L25.93 18.48L25.95 18.06L25.96 17.63L25.97 17.17L25.98 16.71L25.99 15.72L25.99 14.92L26 11.34L25.99 10.27L25.98 9.28L25.97 8.58L25.95 8.14L25.93 7.5L25.91 7.1L25.88 6.71L25.85 6.33L25.81 5.97C25.6 4.09 25.14 2.8 24.17 1.82C23.19 0.85 21.9 0.39 20.02 0.18L19.65 0.14L19.28 0.11L18.89 0.08L18.49 0.06L18.07 0.04L17.63 0.03L17.18 0.02L16.71 0.01L15.72 0L14.93 0L11.06 0ZM17.81 18.04L19.91 8.29C20.1 7.43 19.6 7.1 19.02 7.31L6.69 11.99C5.85 12.32 5.86 12.78 6.54 12.99L9.7 13.97L17.03 9.42C17.37 9.19 17.68 9.32 17.43 9.55L11.5 14.82L11.27 18.03C11.6 18.03 11.74 17.89 11.91 17.72L13.45 16.26L16.65 18.58C17.24 18.9 17.65 18.73 17.81 18.04Z" fill="#2F2F2F" fill-opacity="1.000000" fill-rule="evenodd"/>
</svg>
