<svg width="31.000000" height="31.000000" viewBox="0 0 31 31" fill="none" xmlns="http://www.w3.org/2000/svg" xmlns:xlink="http://www.w3.org/1999/xlink">
	<desc>
			Created with Pixso.
	</desc>
	<defs/>
	<path id="Vector" d="M12.25 0L13.19 0L17.8 0L18.74 0L19.92 0.01L20.48 0.02L21.02 0.04L21.54 0.05L22.04 0.07L22.52 0.1L22.99 0.13L23.43 0.17L23.87 0.21C26.11 0.47 27.65 1.01 28.82 2.17C29.98 3.34 30.52 4.88 30.77 7.12L30.82 7.55L30.86 8L30.89 8.47L30.91 8.95L30.95 9.71L30.96 10.24L30.98 11.07L30.99 12.25L31 13.52L30.99 17.8L30.99 18.74L30.98 19.92L30.97 20.48L30.95 21.02L30.94 21.54L30.91 22.04L30.89 22.52L30.86 22.99L30.82 23.43L30.77 23.86C30.52 26.11 29.98 27.65 28.82 28.82C27.65 29.98 26.11 30.52 23.87 30.77L23.43 30.82L22.99 30.86L22.52 30.89L22.04 30.91L21.28 30.95L20.75 30.96L19.92 30.98L18.74 30.99L17.47 31L13.19 30.99L12.25 30.99L11.07 30.98L10.51 30.97L9.97 30.95L9.45 30.94L8.95 30.91L8.47 30.89L8 30.86L7.56 30.82L7.12 30.77C4.88 30.52 3.34 29.98 2.17 28.82C1.01 27.65 0.47 26.11 0.22 23.86L0.17 23.43L0.13 22.99L0.1 22.52L0.08 22.04L0.04 21.28L0.03 20.75L0.01 19.92L0 18.74L0 17.47L0 13.19L0 12.25L0.01 11.07L0.02 10.51L0.04 9.97L0.05 9.45L0.08 8.95L0.1 8.46L0.13 8L0.17 7.55L0.22 7.12C0.47 4.88 1.01 3.34 2.17 2.17C3.34 1.01 4.88 0.47 7.12 0.21L7.56 0.17L8 0.13L8.47 0.1L8.95 0.08L9.71 0.04L10.24 0.03L11.07 0.01L12.25 0ZM8.77 9.42L5.23 9.42C5.39 17.48 9.42 22.33 16.49 22.33L16.89 22.33L16.89 17.72C19.49 17.97 21.45 19.87 22.24 22.33L25.91 22.33C24.9 18.66 22.25 16.63 20.6 15.86C22.25 14.9 24.58 12.58 25.13 9.42L21.8 9.42C21.08 11.98 18.93 14.31 16.89 14.53L16.89 9.42L13.56 9.42L13.56 18.36C11.49 17.85 8.88 15.34 8.77 9.42Z" fill="#1D69D8" fill-opacity="1.000000" fill-rule="nonzero"/>
</svg>
