<svg width="26.000000" height="26.000000" viewBox="0 0 26 26" fill="none" xmlns="http://www.w3.org/2000/svg" xmlns:xlink="http://www.w3.org/1999/xlink">
	<desc>
			Created with Pixso.
	</desc>
	<defs>
		<clipPath id="clip0_315">
			<rect id="simple-icons:vk" rx="-0.500000" width="25.000000" height="25.000000" transform="translate(0.500000 0.500000)" fill="white" fill-opacity="0"/>
		</clipPath>
	</defs>
	<rect id="simple-icons:vk" rx="-0.500000" width="25.000000" height="25.000000" transform="translate(0.500000 0.500000)" fill="#FFFFFF" fill-opacity="0"/>
	<g clip-path="url(#clip0_315)">
		<path id="Vector" d="M10.27 0L11.06 0L14.93 0L15.72 0L16.71 0.01L17.18 0.02L17.63 0.03L18.07 0.05L18.49 0.06L18.89 0.09L19.28 0.11L19.65 0.15L20.02 0.18C21.9 0.39 23.19 0.85 24.17 1.82C25.14 2.8 25.6 4.09 25.81 5.98L25.85 6.34L25.88 6.71L25.91 7.1L25.93 7.51L25.95 8.14L25.97 8.59L25.98 9.28L25.99 10.28L26 11.34L25.99 14.93L25.99 15.72L25.98 16.71L25.97 17.18L25.96 17.63L25.95 18.07L25.93 18.49L25.91 18.89L25.88 19.28L25.85 19.66L25.81 20.02C25.6 21.9 25.14 23.19 24.17 24.17C23.19 25.14 21.9 25.6 20.02 25.81L19.65 25.85L19.28 25.88L18.89 25.91L18.49 25.93L17.85 25.96L17.4 25.97L16.71 25.98L15.72 25.99L14.65 26L11.06 26L10.27 25.99L9.28 25.98L8.81 25.97L8.36 25.96L7.92 25.95L7.5 25.93L7.1 25.91L6.71 25.88L6.34 25.85L5.97 25.81C4.09 25.6 2.8 25.14 1.82 24.17C0.85 23.19 0.39 21.9 0.18 20.02L0.14 19.66L0.11 19.28L0.08 18.89L0.06 18.49L0.04 17.85L0.02 17.41L0.01 16.71L0 15.72L0 14.65L0 11.07L0 10.27L0.01 9.28L0.02 8.82L0.03 8.36L0.04 7.93L0.06 7.51L0.08 7.1L0.11 6.71L0.14 6.34L0.18 5.98C0.39 4.09 0.85 2.8 1.82 1.82C2.8 0.85 4.09 0.39 5.97 0.18L6.34 0.14L6.71 0.11L7.1 0.09L7.5 0.06L8.14 0.04L8.59 0.02L9.28 0.01L10.27 0ZM7.35 7.9L4.38 7.9C4.52 14.66 7.9 18.73 13.83 18.73L14.16 18.73L14.16 14.86C16.34 15.08 17.99 16.67 18.65 18.73L21.73 18.73C20.88 15.65 18.66 13.95 17.27 13.3C18.66 12.5 20.61 10.55 21.08 7.9L18.28 7.9C17.67 10.05 15.88 12 14.16 12.18L14.16 7.9L11.37 7.9L11.37 15.4C9.64 14.97 7.45 12.87 7.35 7.9Z" fill="#2F2F2F" fill-opacity="1.000000" fill-rule="nonzero"/>
	</g>
</svg>
